# xmcd CD database file
#
# Track frame offsets:
#	150
#	20919
#	54482
#	96612
#	136447
#	148793
#	188055
#
# Disc length: 2660 seconds
#
# Revision: 0
# Processed by: cddbd v1.5.1PL2 Copyright (c) Steve Scherf et al.
# Submitted via: CDex 1.51
#
DISCID=6b0a6207
DTITLE=Free jazz trio - Looking back in dream
DYEAR=2003
DGENRE=Jazz
TTITLE0=Tonikovi k sedesatce [part 1]
TTITLE1=Conjuction
TTITLE2=Kousek pro budoucnost
TTITLE3=Odpoledni sen
TTITLE4=Double Birthday
TTITLE5=Song of Space (Jan Garbarek)
TTITLE6=Tonikovi k sedesatce [part 2]
EXTD=YEAR: 2003
EXTT0=
EXTT1=
EXTT2=
EXTT3=
EXTT4=
EXTT5=
EXTT6=
PLAYORDER=
